<svg width="30" height="30" viewBox="0 0 30 30" fill="none" xmlns="http://www.w3.org/2000/svg">
<path fill-rule="evenodd" clip-rule="evenodd" d="M23.3563 23.8713C24.5675 22.7331 25.5325 21.3586 26.1914 19.8328C26.8504 18.3069 27.1894 16.6621 27.1875 15C27.1875 8.26875 21.7313 2.8125 15 2.8125C8.26876 2.8125 2.81251 8.26875 2.81251 15C2.81059 16.6621 3.14959 18.3069 3.80857 19.8328C4.46755 21.3586 5.4325 22.7331 6.64376 23.8713C8.90243 26.0049 11.8929 27.1917 15 27.1875C18.1071 27.1917 21.0976 26.0049 23.3563 23.8713ZM7.68126 22.265C8.55886 21.1671 9.67252 20.2809 10.9396 19.6724C12.2066 19.0639 13.5944 18.7486 15 18.75C16.4056 18.7486 17.7934 19.0639 19.0605 19.6724C20.3275 20.2809 21.4412 21.1671 22.3188 22.265C21.3613 23.2321 20.2213 23.9995 18.965 24.5226C17.7086 25.0458 16.3609 25.3143 15 25.3125C13.6391 25.3143 12.2914 25.0458 11.035 24.5226C9.7787 23.9995 8.63873 23.2321 7.68126 22.265ZM19.6875 11.25C19.6875 12.4932 19.1936 13.6855 18.3146 14.5646C17.4355 15.4436 16.2432 15.9375 15 15.9375C13.7568 15.9375 12.5645 15.4436 11.6854 14.5646C10.8064 13.6855 10.3125 12.4932 10.3125 11.25C10.3125 10.0068 10.8064 8.81451 11.6854 7.93544C12.5645 7.05636 13.7568 6.5625 15 6.5625C16.2432 6.5625 17.4355 7.05636 18.3146 7.93544C19.1936 8.81451 19.6875 10.0068 19.6875 11.25Z" fill="#636869"/>
</svg>
