<svg width="30" height="30" viewBox="0 0 30 30" fill="none" xmlns="http://www.w3.org/2000/svg">
<path fill-rule="evenodd" clip-rule="evenodd" d="M9.37498 7.5V8.4375H6.89122C5.69122 8.4375 4.68622 9.3425 4.55997 10.5363L2.98122 25.5363C2.94689 25.8629 2.9816 26.1932 3.08312 26.5056C3.18464 26.818 3.35069 27.1056 3.5705 27.3496C3.79031 27.5937 4.05898 27.7889 4.35908 27.9225C4.65917 28.056 4.98399 28.125 5.31247 28.125H24.6875C25.016 28.125 25.3408 28.056 25.6409 27.9225C25.941 27.7889 26.2096 27.5937 26.4295 27.3496C26.6493 27.1056 26.8153 26.818 26.9168 26.5056C27.0184 26.1932 27.0531 25.8629 27.0187 25.5363L25.44 10.5363C25.3794 9.96018 25.1077 9.42694 24.6772 9.03939C24.2467 8.65183 23.688 8.43742 23.1087 8.4375H20.625V7.5C20.625 6.00816 20.0323 4.57742 18.9775 3.52252C17.9226 2.46763 16.4918 1.875 15 1.875C13.5081 1.875 12.0774 2.46763 11.0225 3.52252C9.96761 4.57742 9.37498 6.00816 9.37498 7.5ZM15 3.75C14.0054 3.75 13.0516 4.14509 12.3483 4.84835C11.6451 5.55161 11.25 6.50544 11.25 7.5V8.4375H18.75V7.5C18.75 6.50544 18.3549 5.55161 17.6516 4.84835C16.9484 4.14509 15.9945 3.75 15 3.75ZM11.25 14.0625C11.25 15.0571 11.6451 16.0109 12.3483 16.7142C13.0516 17.4174 14.0054 17.8125 15 17.8125C15.9945 17.8125 16.9484 17.4174 17.6516 16.7142C18.3549 16.0109 18.75 15.0571 18.75 14.0625V13.125C18.75 12.8764 18.8487 12.6379 19.0246 12.4621C19.2004 12.2863 19.4388 12.1875 19.6875 12.1875C19.9361 12.1875 20.1746 12.2863 20.3504 12.4621C20.5262 12.6379 20.625 12.8764 20.625 13.125V14.0625C20.625 15.5543 20.0323 16.9851 18.9775 18.04C17.9226 19.0949 16.4918 19.6875 15 19.6875C13.5081 19.6875 12.0774 19.0949 11.0225 18.04C9.96761 16.9851 9.37498 15.5543 9.37498 14.0625V13.125C9.37498 12.8764 9.47375 12.6379 9.64956 12.4621C9.82538 12.2863 10.0638 12.1875 10.3125 12.1875C10.5611 12.1875 10.7996 12.2863 10.9754 12.4621C11.1512 12.6379 11.25 12.8764 11.25 13.125V14.0625Z" fill="#636869"/>
</svg>
