<svg width="31" height="28" viewBox="0 0 31 28" fill="none" xmlns="http://www.w3.org/2000/svg">
<path d="M9.04166 26.8333C8.33124 26.8333 7.72309 26.6049 7.21718 26.1479C6.71128 25.691 6.45833 25.1417 6.45833 24.5V3.5C6.45833 2.85833 6.71128 2.30903 7.21718 1.85208C7.72309 1.39514 8.33124 1.16667 9.04166 1.16667H21.9583C22.6687 1.16667 23.2769 1.39514 23.7828 1.85208C24.2887 2.30903 24.5417 2.85833 24.5417 3.5V7.11667C24.9292 7.25278 25.2413 7.46667 25.4781 7.75833C25.7149 8.05 25.8333 8.38056 25.8333 8.75V11.0833C25.8333 11.4528 25.7149 11.7833 25.4781 12.075C25.2413 12.3667 24.9292 12.5806 24.5417 12.7167V24.5C24.5417 25.1417 24.2887 25.691 23.7828 26.1479C23.2769 26.6049 22.6687 26.8333 21.9583 26.8333H9.04166ZM9.04166 24.5H21.9583V3.5H9.04166V24.5ZM15.5 7C15.866 7 16.1727 6.88819 16.4203 6.66458C16.6679 6.44097 16.7917 6.16389 16.7917 5.83333C16.7917 5.50278 16.6679 5.22569 16.4203 5.00208C16.1727 4.77847 15.866 4.66667 15.5 4.66667C15.134 4.66667 14.8273 4.77847 14.5797 5.00208C14.3321 5.22569 14.2083 5.50278 14.2083 5.83333C14.2083 6.16389 14.3321 6.44097 14.5797 6.66458C14.8273 6.88819 15.134 7 15.5 7Z" fill="black"/>
</svg>
