<svg width="30" height="30" viewBox="0 0 30 30" fill="none" xmlns="http://www.w3.org/2000/svg">
<path fill-rule="evenodd" clip-rule="evenodd" d="M6.56253 11.25C6.56253 9.01224 7.45148 6.86613 9.03381 5.28379C10.6162 3.70145 12.7623 2.8125 15 2.8125C17.2378 2.8125 19.3839 3.70145 20.9662 5.28379C22.5486 6.86613 23.4375 9.01224 23.4375 11.25V12.1875C23.4375 14.8412 24.4375 17.2588 26.085 19.0875C26.1877 19.2012 26.2608 19.3384 26.2982 19.487C26.3356 19.6355 26.3359 19.791 26.2993 19.9397C26.2627 20.0885 26.1901 20.226 26.0881 20.3402C25.986 20.4545 25.8575 20.5419 25.7138 20.595C23.7838 21.3075 21.7638 21.8325 19.675 22.1488C19.7221 22.7914 19.6361 23.4369 19.4224 24.0448C19.2088 24.6528 18.8721 25.2102 18.4334 25.6822C17.9947 26.1542 17.4634 26.5306 16.8726 26.7881C16.2819 27.0455 15.6444 27.1783 15 27.1783C14.3556 27.1783 13.7182 27.0455 13.1274 26.7881C12.5367 26.5306 12.0054 26.1542 11.5666 25.6822C11.1279 25.2102 10.7912 24.6528 10.5776 24.0448C10.364 23.4369 10.278 22.7914 10.325 22.1488C8.26459 21.8365 6.24126 21.3155 4.28628 20.5938C4.14269 20.5407 4.01427 20.4534 3.91223 20.3393C3.81019 20.2252 3.73762 20.0879 3.70088 19.9393C3.66413 19.7908 3.66433 19.6354 3.70144 19.487C3.73855 19.3385 3.81145 19.2013 3.91378 19.0875C5.62229 17.1958 6.56638 14.7365 6.56253 12.1875V11.25ZM12.19 22.375C12.174 22.754 12.2349 23.1323 12.3689 23.4872C12.5029 23.842 12.7073 24.1661 12.9698 24.4399C13.2323 24.7137 13.5475 24.9316 13.8964 25.0805C14.2453 25.2293 14.6207 25.3061 15 25.3061C15.3794 25.3061 15.7548 25.2293 16.1037 25.0805C16.4526 24.9316 16.7677 24.7137 17.0303 24.4399C17.2928 24.1661 17.4972 23.842 17.6312 23.4872C17.7652 23.1323 17.826 22.754 17.81 22.375C15.9405 22.5434 14.0596 22.5434 12.19 22.375Z" fill="#636869"/>
</svg>
